<svg width="14.000000" height="12.386719" viewBox="0 0 14 12.3867" fill="none" xmlns="http://www.w3.org/2000/svg" xmlns:xlink="http://www.w3.org/1999/xlink">
	<defs/>
	<path id="Vector" d="M12.6 0L1.39 0C1.01 0 0.68 0.13 0.41 0.41C0.13 0.68 0 1.01 0 1.39L0 10.99C0 11.37 0.13 11.7 0.41 11.97C0.68 12.25 1.01 12.38 1.39 12.38L12.6 12.38C12.98 12.38 13.31 12.25 13.58 11.97C13.86 11.7 14 11.37 14 10.99L14 1.39C14 1.01 13.86 0.68 13.58 0.41C13.31 0.13 12.98 0 12.6 0ZM1.39 1.18L12.6 1.18C12.66 1.18 12.7 1.2 12.74 1.25C12.77 1.29 12.79 1.33 12.79 1.39L12.79 2.62L7 5.52L1.2 2.62L1.2 1.39C1.2 1.33 1.22 1.29 1.25 1.25C1.29 1.2 1.33 1.18 1.39 1.18ZM12.6 11.19L1.39 11.19C1.33 11.19 1.29 11.17 1.25 11.13C1.22 11.09 1.2 11.04 1.2 10.99L1.2 3.96L6.72 6.72C6.76 6.74 6.8 6.76 6.85 6.77C6.9 6.78 6.95 6.79 7 6.79C7.04 6.79 7.09 6.78 7.14 6.77C7.19 6.76 7.23 6.74 7.27 6.72L12.79 3.96L12.79 10.99C12.79 11.04 12.77 11.09 12.74 11.13C12.7 11.17 12.66 11.19 12.6 11.19Z" fill="#C8CCD8" fill-opacity="1.000000" fill-rule="nonzero"/>
</svg>
