<svg width="16" height="16" viewBox="0 0 16 16" fill="none" xmlns="http://www.w3.org/2000/svg">
<rect width="16" height="16" fill="white" fill-opacity="0.01"/>
<g clip-path="url(#clip0_2003_1494)">
<rect width="14" height="14" transform="translate(1 1)" fill="white" fill-opacity="0.01"/>
<g clip-path="url(#clip1_2003_1494)">
<path d="M12.6889 10.8325C14.1773 9.5042 14.9998 7.9992 14.9998 7.9992C14.9998 7.9992 12.3748 3.1867 7.99976 3.1867C7.1594 3.1896 6.32855 3.3647 5.55851 3.7012L6.23226 4.37583C6.79876 4.16946 7.39684 4.06317 7.99976 4.0617C9.85476 4.0617 11.3939 5.0837 12.5218 6.21158C13.0646 6.75731 13.5512 7.35619 13.9743 7.9992C13.9235 8.07533 13.8675 8.15933 13.8036 8.2512C13.5105 8.6712 13.0774 9.2312 12.5218 9.78683C12.3774 9.9312 12.2269 10.0738 12.0694 10.2121L12.6889 10.8325Z" fill="#6C757D"/>
<path d="M10.8846 9.0282C11.0799 8.48206 11.1161 7.89171 10.9889 7.32582C10.8618 6.75993 10.5765 6.24179 10.1664 5.83167C9.7563 5.42155 9.23815 5.13633 8.67226 5.00918C8.10638 4.88203 7.51602 4.91819 6.96988 5.11345L7.69001 5.83358C8.02628 5.78545 8.36914 5.81629 8.69142 5.92367C9.0137 6.03105 9.30654 6.21201 9.54675 6.45221C9.78695 6.69242 9.96791 6.98526 10.0753 7.30754C10.1827 7.62982 10.2135 7.97268 10.1654 8.30895L10.8846 9.0282ZM8.30951 10.1648L9.02876 10.8841C8.48262 11.0793 7.89226 11.1155 7.32637 10.9884C6.76049 10.8612 6.24234 10.576 5.83222 10.1659C5.4221 9.75574 5.13688 9.2376 5.00973 8.67171C4.88258 8.10582 4.91875 7.51547 5.11401 6.96933L5.83413 7.68945C5.786 8.02572 5.81684 8.36858 5.92422 8.69087C6.0316 9.01315 6.21256 9.30599 6.45277 9.54619C6.69297 9.7864 6.98581 9.96736 7.30809 10.0747C7.63037 10.1821 7.97323 10.213 8.30951 10.1648Z" fill="#6C757D"/>
<path d="M3.93101 5.78545C3.77351 5.92545 3.62213 6.0672 3.47776 6.21158C2.93495 6.75731 2.44834 7.35619 2.02526 7.9992L2.19588 8.2512C2.48901 8.6712 2.92213 9.2312 3.47776 9.78683C4.60563 10.9147 6.14563 11.9367 7.99976 11.9367C8.62626 11.9367 9.21601 11.8203 9.76726 11.6217L10.441 12.2972C9.67095 12.6337 8.84011 12.8088 7.99976 12.8117C3.62476 12.8117 0.999756 7.9992 0.999756 7.9992C0.999756 7.9992 1.82138 6.49333 3.31063 5.16595L3.93013 5.78633L3.93101 5.78545ZM12.94 13.559L2.44001 3.05895L3.05951 2.43945L13.5595 12.9395L12.94 13.559Z" fill="#6C757D"/>
</g>
</g>
<defs>
<clipPath id="clip0_2003_1494">
<rect width="14" height="14" fill="white" transform="translate(1 1)"/>
</clipPath>
<clipPath id="clip1_2003_1494">
<rect width="14" height="14" fill="white" transform="translate(1 1)"/>
</clipPath>
</defs>
</svg>
