<svg width="13.535156" height="14.000000" viewBox="0 0 13.5352 14" fill="none" xmlns="http://www.w3.org/2000/svg" xmlns:xlink="http://www.w3.org/1999/xlink">
	<defs/>
	<path id="Vector" d="M8.92 9.21C8.92 9.21 8.92 9.21 8.91 9.21C8.28 9.21 7.69 9.09 7.13 8.85C6.58 8.61 6.09 8.28 5.68 7.86C5.26 7.45 4.93 6.96 4.68 6.4C4.44 5.84 4.32 5.24 4.32 4.6C4.32 3.96 4.44 3.37 4.68 2.81C4.92 2.25 5.25 1.76 5.67 1.34C6.09 0.93 6.58 0.6 7.13 0.35C7.69 0.11 8.28 0 8.92 0C9.56 0 10.16 0.11 10.71 0.35C11.28 0.6 11.77 0.93 12.18 1.34C12.6 1.76 12.93 2.25 13.17 2.81C13.41 3.37 13.53 3.96 13.53 4.6C13.53 5.23 13.41 5.83 13.17 6.39C12.93 6.95 12.6 7.44 12.18 7.86C11.77 8.28 11.28 8.6 10.71 8.84C10.16 9.09 9.56 9.21 8.92 9.21ZM8.92 1.23C8.46 1.23 8.02 1.31 7.61 1.49C7.2 1.67 6.84 1.91 6.54 2.22C6.23 2.52 5.99 2.88 5.81 3.29C5.63 3.71 5.55 4.15 5.55 4.62C5.55 5.08 5.63 5.52 5.81 5.93C5.98 6.34 6.22 6.7 6.53 7.01C6.84 7.32 7.2 7.56 7.61 7.74C8.02 7.92 8.46 8.01 8.94 8.01C9.4 8.01 9.84 7.92 10.25 7.73C10.67 7.56 11.03 7.32 11.34 7.02C11.64 6.71 11.88 6.35 12.05 5.93C12.24 5.52 12.33 5.08 12.33 4.62C12.33 4.14 12.24 3.7 12.05 3.29C11.88 2.88 11.64 2.52 11.34 2.22C11.03 1.91 10.67 1.67 10.25 1.49C9.84 1.31 9.4 1.23 8.94 1.23C8.94 1.23 8.93 1.23 8.93 1.23C8.93 1.23 8.92 1.23 8.92 1.23ZM0.54 13.6C0.46 13.59 0.38 13.57 0.32 13.53C0.25 13.49 0.19 13.45 0.15 13.39C0.1 13.34 0.06 13.28 0.04 13.21C0.01 13.14 0 13.07 0 13C0 12.91 0.01 12.84 0.04 12.77C0.06 12.7 0.1 12.65 0.15 12.6L5.3 7.43C5.35 7.38 5.42 7.33 5.49 7.3C5.56 7.27 5.64 7.25 5.72 7.25C5.89 7.25 6.03 7.31 6.15 7.43C6.27 7.55 6.33 7.69 6.33 7.86C6.33 7.94 6.31 8.02 6.28 8.09C6.25 8.16 6.2 8.23 6.15 8.28L0.94 13.39C0.89 13.45 0.84 13.49 0.77 13.53C0.7 13.57 0.62 13.59 0.54 13.6ZM3.33 14C3.25 14 3.17 13.98 3.1 13.95C3.03 13.92 2.97 13.87 2.92 13.82L1.32 12.22C1.27 12.16 1.23 12.1 1.2 12.03C1.17 11.96 1.16 11.89 1.16 11.81C1.16 11.64 1.22 11.5 1.33 11.39C1.45 11.28 1.59 11.22 1.76 11.22C1.83 11.22 1.9 11.23 1.98 11.26C2.05 11.29 2.11 11.32 2.17 11.37L3.75 12.97C3.81 13.02 3.85 13.09 3.88 13.16C3.92 13.23 3.93 13.31 3.93 13.39C3.93 13.48 3.92 13.55 3.88 13.63C3.85 13.7 3.81 13.76 3.75 13.82C3.71 13.87 3.65 13.92 3.58 13.95C3.5 13.98 3.43 14 3.34 14C3.34 14 3.34 14 3.33 14ZM4.93 12.4C4.85 12.4 4.77 12.38 4.7 12.35C4.63 12.32 4.56 12.27 4.51 12.22L2.92 10.62C2.86 10.56 2.81 10.5 2.78 10.43C2.75 10.35 2.73 10.27 2.73 10.18C2.73 10.02 2.79 9.88 2.9 9.76C3.01 9.65 3.15 9.59 3.32 9.59C3.41 9.59 3.49 9.61 3.56 9.64C3.64 9.67 3.7 9.72 3.75 9.78L5.35 11.37C5.41 11.42 5.45 11.49 5.48 11.56C5.52 11.63 5.53 11.71 5.53 11.79C5.53 11.88 5.52 11.95 5.48 12.03C5.45 12.1 5.41 12.16 5.35 12.22C5.3 12.27 5.24 12.32 5.16 12.35C5.09 12.38 5.01 12.4 4.93 12.4Z" fill="#C8CCD8" fill-opacity="1.000000" fill-rule="nonzero"/>
</svg>
