<svg width="14.000000" height="14.000000" viewBox="0 0 14 14" fill="none" xmlns="http://www.w3.org/2000/svg" xmlns:xlink="http://www.w3.org/1999/xlink">
	<defs>
		<clipPath id="clip3_15">
			<rect id="Icon" width="14.000000" height="14.000000" transform="matrix(1 0 0 -1 0 14)" fill="white" fill-opacity="0"/>
		</clipPath>
	</defs>
	<g clip-path="url(#clip3_15)">
		<path id="Vector" d="M7 7.23C6.53 7.23 6.09 7.14 5.68 6.95C5.26 6.78 4.9 6.54 4.6 6.23C4.29 5.92 4.05 5.56 3.88 5.15C3.7 4.74 3.6 4.3 3.6 3.84C3.6 3.36 3.7 2.92 3.88 2.51C4.05 2.1 4.29 1.74 4.6 1.44C4.9 1.13 5.26 0.89 5.68 0.72C6.09 0.54 6.53 0.45 7 0.45C7.46 0.45 7.9 0.54 8.31 0.72C8.73 0.89 9.09 1.13 9.39 1.44C9.7 1.74 9.94 2.1 10.11 2.51C10.29 2.92 10.39 3.36 10.39 3.84C10.39 4.3 10.29 4.74 10.11 5.15C9.94 5.56 9.7 5.92 9.39 6.23C9.09 6.54 8.73 6.78 8.31 6.95C7.9 7.14 7.46 7.23 7 7.23ZM7 1.8C6.43 1.8 5.95 2 5.55 2.39C5.16 2.79 4.96 3.27 4.96 3.84C4.96 4.39 5.16 4.87 5.55 5.27C5.95 5.66 6.43 5.86 7 5.86C7.56 5.86 8.04 5.66 8.44 5.27C8.83 4.87 9.03 4.39 9.03 3.84C9.03 3.27 8.83 2.79 8.44 2.39C8.04 2 7.56 1.8 7 1.8ZM13.31 13.54C13.13 13.54 12.97 13.48 12.84 13.35C12.71 13.21 12.64 13.05 12.64 12.86C12.64 12.42 12.57 12.02 12.42 11.66C12.27 11.3 11.99 11 11.58 10.74C11.16 10.49 10.59 10.29 9.85 10.14C9.12 10 8.17 9.93 7 9.93C5.82 9.93 4.87 10 4.14 10.14C3.4 10.29 2.83 10.49 2.41 10.74C2 11 1.72 11.3 1.57 11.66C1.42 12.02 1.35 12.42 1.35 12.86C1.35 13.05 1.28 13.21 1.15 13.35C1.02 13.48 0.86 13.54 0.68 13.54C0.49 13.54 0.33 13.48 0.19 13.35C0.06 13.21 0 13.05 0 12.86C0 11.79 0.26 10.97 0.79 10.39C1.33 9.8 1.97 9.38 2.71 9.11C3.45 8.84 4.22 8.69 5.01 8.65C5.81 8.6 6.48 8.58 7 8.58C7.51 8.58 8.18 8.6 8.98 8.65C9.77 8.69 10.54 8.84 11.28 9.11C12.02 9.38 12.66 9.8 13.2 10.39C13.73 10.97 14 11.79 14 12.86C14 13.05 13.93 13.21 13.8 13.35C13.66 13.48 13.5 13.54 13.31 13.54Z" fill="#C8CCD8" fill-opacity="1.000000" fill-rule="nonzero"/>
	</g>
</svg>
